<svg xmlns="http://www.w3.org/2000/svg" width="432" height="131" fill="none"><path fill="#fff" d="M143.219 64.737c0 1.148.952 2.105 2.856 2.871 1.98.69 4.341 1.416 7.083 2.182a57.656 57.656 0 0 1 8.224 2.756c2.742 1.149 5.065 3.063 6.969 5.743 1.98 2.603 2.97 5.895 2.97 9.876 0 6.202-2.285 10.91-6.854 14.127-4.57 3.139-10.205 4.708-16.907 4.708-12.032 0-20.219-4.555-24.56-13.666l14.85-8.5c1.523 4.518 4.76 6.777 9.71 6.777 4.113 0 6.169-1.187 6.169-3.56 0-1.149-.99-2.106-2.97-2.871-1.904-.766-4.227-1.494-6.969-2.183a70.042 70.042 0 0 1-8.224-2.87c-2.742-1.226-5.103-3.102-7.083-5.628-1.904-2.527-2.856-5.628-2.856-9.303 0-5.972 2.133-10.604 6.397-13.896 4.341-3.292 9.672-4.938 15.993-4.938 4.722 0 9.025 1.072 12.908 3.215 3.884 2.068 7.007 5.092 9.368 9.073l-14.622 7.924c-1.828-3.368-4.379-5.053-7.654-5.053-3.198 0-4.798 1.072-4.798 3.216zm68.985-16.767h17.135v57.422h-17.135v-5.397c-3.427 4.67-8.872 7.005-16.336 7.005-6.092 0-11.195-2.105-15.307-6.316-4.036-4.211-6.054-10.03-6.054-17.457V47.97h17.135v32.732c0 3.368.914 5.972 2.741 7.809 1.904 1.761 4.303 2.641 7.197 2.641 3.275 0 5.864-.995 7.768-2.986 1.904-1.99 2.856-4.938 2.856-8.843V47.97zm59.288-1.608c7.539 0 13.974 2.947 19.305 8.843 5.331 5.819 7.996 12.977 7.996 21.476 0 8.499-2.665 15.695-7.996 21.59-5.331 5.82-11.766 8.729-19.305 8.729-7.311 0-12.985-2.335-17.021-7.005v5.397h-17.135V25h17.135v28.367c4.036-4.67 9.71-7.005 17.021-7.005zm-13.251 40.54c2.589 2.527 5.864 3.79 9.824 3.79s7.196-1.263 9.709-3.79c2.59-2.526 3.884-5.933 3.884-10.221s-1.294-7.695-3.884-10.221c-2.513-2.527-5.749-3.79-9.709-3.79s-7.235 1.263-9.824 3.79c-2.514 2.526-3.77 5.933-3.77 10.22 0 4.288 1.256 7.696 3.77 10.222zm79.854-40.54c7.539 0 13.974 2.947 19.305 8.843 5.331 5.819 7.997 12.977 7.997 21.476 0 8.499-2.666 15.695-7.997 21.59-5.331 5.82-11.766 8.729-19.305 8.729-7.311 0-12.985-2.335-17.021-7.005v5.397h-17.135V25h17.135v28.367c4.036-4.67 9.71-7.005 17.021-7.005zm-13.251 40.54c2.589 2.527 5.864 3.79 9.824 3.79s7.197-1.263 9.71-3.79c2.589-2.526 3.884-5.933 3.884-10.221s-1.295-7.695-3.884-10.221c-2.513-2.527-5.75-3.79-9.71-3.79-3.96 0-7.235 1.263-9.824 3.79-2.513 2.526-3.77 5.933-3.77 10.22 0 4.288 1.257 7.696 3.77 10.222zm79.854-40.54c7.54 0 13.975 2.947 19.306 8.843C429.335 61.024 432 68.182 432 76.68c0 8.499-2.665 15.695-7.996 21.59-5.331 5.82-11.766 8.729-19.306 8.729-7.311 0-12.984-2.335-17.02-7.005v5.397h-17.135V25h17.135v28.367c4.036-4.67 9.709-7.005 17.02-7.005zm-13.251 40.54c2.589 2.527 5.864 3.79 9.824 3.79s7.197-1.263 9.71-3.79c2.589-2.526 3.884-5.933 3.884-10.221s-1.295-7.695-3.884-10.221c-2.513-2.527-5.75-3.79-9.71-3.79-3.96 0-7.235 1.263-9.824 3.79-2.513 2.526-3.769 5.933-3.769 10.22 0 4.288 1.256 7.696 3.769 10.222zM24.962 22.96c4.285-15.994 20.725-25.486 36.72-21.2l51.175 13.713-15.52 57.92L46.163 59.68c-15.994-4.286-25.486-20.726-21.2-36.72zm62.618 85.705c-4.285 15.995-20.725 25.486-36.72 21.201L0 116.238l15.52-57.92 50.86 13.628c15.994 4.285 25.486 20.725 21.2 36.719z"/></svg>